<?xml version="1.0" encoding="utf-8"?>
<!DOCTYPE svg PUBLIC "-//W3C//DTD SVG 1.1//EN" "http://www.w3.org/Graphics/SVG/1.1/DTD/svg11.dtd">
<svg version="1.1" id="Layer_1" xmlns="http://www.w3.org/2000/svg" xmlns:xlink="http://www.w3.org/1999/xlink" x="0px" y="0px"
	 width="85px" height="84px" viewBox="0 0 85 84" enable-background="new 0 0 85 84" xml:space="preserve">
<path fill="#FFFFFF" d="M79,0H6C2.896-0.016,0,2.81,0,6.031v51.125c0,3.223,2.642,5.836,5.902,5.836l26.22,0.002
	c0,0,3.129,0.006,6.129,2.006l23.967,18.543C62.611,83.846,62.852,84,63.083,84C63.747,84,64,83.738,64,83V65c0-1.246,0.887-2,2-2
	h13c3.26,0,6-2.777,6-6V6C85,2.778,82.562,0,79,0z M55.225,27.471c0.012,0.281,0.018,0.565,0.018,0.85
	c0,8.676-6.604,18.68-18.679,18.68c-3.707,0-7.158-1.089-10.06-2.952c0.513,0.063,1.036,0.095,1.566,0.095
	c3.075,0,5.906-1.049,8.154-2.812c-2.873-0.052-5.298-1.95-6.133-4.56c0.4,0.078,0.812,0.117,1.235,0.117
	c0.598,0,1.178-0.08,1.729-0.229c-3.003-0.604-5.267-3.258-5.267-6.438l0.001-0.084c0.885,0.491,1.898,0.788,2.974,0.821
	c-1.762-1.177-2.921-3.185-2.921-5.465c0-1.202,0.325-2.33,0.889-3.298c3.238,3.97,8.076,6.584,13.532,6.86
	c-0.112-0.481-0.17-0.986-0.17-1.498c0-3.625,2.939-6.565,6.565-6.565c1.888,0,3.594,0.797,4.792,2.075
	c1.492-0.297,2.898-0.842,4.168-1.594c-0.492,1.531-1.533,2.82-2.889,3.633c1.328-0.16,2.594-0.513,3.771-1.035
	C57.619,25.389,56.508,26.544,55.225,27.471z"/>
</svg>
